<svg width="111" height="60" viewBox="0 0 111 60" fill="none" xmlns="http://www.w3.org/2000/svg">
<path d="M1.50079 25.8229V0H1.53414L15.1747 19.5526L13.1069 19.0806L26.7141 0H26.7808V25.8229H21.9449V11.0236L22.2451 13.5519L13.9407 25.4857H13.874L5.33615 13.5519L6.16992 11.2259V25.8229H1.50079Z" fill="white"/>
<path d="M38.0281 9.8437L37.8947 11.091L38.6285 10.1471L46.6327 1.01134H52.9026L42.764 12.1361L52.936 25.8229H46.7994L39.2288 15.2375L38.0281 16.4511V25.8229H33.1255V1.01134H38.0281V9.8437Z" fill="white"/>
<path d="M62.978 18.103L53.9399 1.01134H59.9097L66.2464 13.8891L64.8123 13.9902L71.0489 1.01134H77.0188L67.8139 18.103V25.8229H62.978V18.103Z" fill="white"/>
<path d="M19.9105 57.3786C19.6437 57.6033 19.1434 57.9067 18.4097 58.2888C17.6982 58.6708 16.82 59.008 15.775 59.3001C14.73 59.5923 13.5738 59.7271 12.3065 59.7047C10.3721 59.6597 8.63789 59.3114 7.10375 58.6596C5.59184 57.9854 4.30227 57.0752 3.23504 55.929C2.19004 54.7828 1.38962 53.4681 0.833773 51.9848C0.277924 50.5015 0 48.917 0 47.2315C0 45.3436 0.277924 43.6131 0.833773 42.0399C1.41186 40.4667 2.2234 39.1071 3.26839 37.9609C4.33562 36.8147 5.60296 35.927 7.0704 35.2977C8.53784 34.6684 10.1609 34.3538 11.9396 34.3538C13.5849 34.3538 15.0413 34.5785 16.3086 35.028C17.5759 35.4775 18.6098 35.9607 19.4102 36.4776L17.5092 41.096C16.9534 40.669 16.2086 40.2308 15.2747 39.7813C14.3631 39.3093 13.307 39.0733 12.1064 39.0733C11.1726 39.0733 10.2721 39.2756 9.40496 39.6801C8.56007 40.0622 7.80412 40.6128 7.1371 41.332C6.49231 42.0512 5.98093 42.894 5.60296 43.8604C5.22498 44.8043 5.03599 45.8381 5.03599 46.9618C5.03599 48.1529 5.20274 49.2429 5.53625 50.2318C5.892 51.2206 6.39226 52.0747 7.03705 52.7938C7.68183 53.4905 8.4489 54.0299 9.33826 54.412C10.2499 54.7941 11.2726 54.9851 12.4065 54.9851C13.7183 54.9851 14.8412 54.7716 15.775 54.3446C16.7088 53.9176 17.4203 53.4681 17.9094 52.9961L19.9105 57.3786Z" fill="white"/>
<path d="M23.2545 47.0629C23.2545 45.3549 23.5768 43.7367 24.2216 42.2085C24.8664 40.6802 25.7558 39.3318 26.8897 38.1631C28.0459 36.972 29.3799 36.0393 30.8918 35.3651C32.4037 34.6909 34.0268 34.3538 35.7611 34.3538C37.4731 34.3538 39.085 34.6909 40.5969 35.3651C42.1088 36.0393 43.4429 36.972 44.5991 38.1631C45.7775 39.3318 46.689 40.6802 47.3338 42.2085C48.0008 43.7367 48.3344 45.3549 48.3344 47.0629C48.3344 48.8159 48.0008 50.4565 47.3338 51.9848C46.689 53.513 45.7775 54.8615 44.5991 56.0301C43.4429 57.1763 42.1088 58.0753 40.5969 58.727C39.085 59.3788 37.4731 59.7047 35.7611 59.7047C34.0268 59.7047 32.4037 59.3788 30.8918 58.727C29.3799 58.0753 28.0459 57.1763 26.8897 56.0301C25.7558 54.8615 24.8664 53.513 24.2216 51.9848C23.5768 50.4565 23.2545 48.8159 23.2545 47.0629ZM28.2571 47.0629C28.2571 48.1642 28.4461 49.198 28.8241 50.1644C29.2243 51.1083 29.769 51.9511 30.4583 52.6927C31.1697 53.4119 31.9813 53.9737 32.8929 54.3783C33.8267 54.7828 34.8383 54.9851 35.9278 54.9851C36.9728 54.9851 37.94 54.7828 38.8293 54.3783C39.7409 53.9737 40.5302 53.4119 41.1973 52.6927C41.8643 51.9511 42.3868 51.1083 42.7647 50.1644C43.1427 49.198 43.3317 48.1642 43.3317 47.0629C43.3317 45.9392 43.1316 44.8942 42.7314 43.9278C42.3534 42.9614 41.8198 42.1186 41.1306 41.3994C40.4635 40.6578 39.6742 40.0847 38.7626 39.6801C37.851 39.2756 36.8616 39.0733 35.7944 39.0733C34.7272 39.0733 33.7378 39.2756 32.8262 39.6801C31.9146 40.0847 31.1142 40.6578 30.4249 41.3994C29.7357 42.1186 29.202 42.9614 28.8241 43.9278C28.4461 44.8942 28.2571 45.9392 28.2571 47.0629Z" fill="white"/>
<path d="M53.1556 59.435V33.6121H53.189L66.8295 53.1647L64.7618 52.6927L78.3689 33.6121H78.4357V59.435H73.5998V44.6357L73.8999 47.1641L65.5955 59.0979H65.5288L56.991 47.1641L57.8248 44.838V59.435H53.1556Z" fill="white"/>
<path d="M84.7804 59.435V33.6121H84.8138L98.4543 53.1647L96.3865 52.6927L109.994 33.6121H110.06V59.435H105.225V44.6357L105.525 47.1641L97.2203 59.0979H97.1536L88.6158 47.1641L89.4495 44.838V59.435H84.7804Z" fill="white"/>
</svg>
